<svg width="48" height="48" viewBox="0 0 48 48" fill="none" xmlns="http://www.w3.org/2000/svg">
<g clip-path="url(#clip0_37_61)">
<rect width="48" height="48" fill="white"/>
<path d="M30.5 40.5C30.5 41.6457 29.4516 43.1445 26.6771 44.4451C24.0221 45.6896 20.2488 46.5 16 46.5C11.7512 46.5 7.97793 45.6896 5.32294 44.4451C2.54839 43.1445 1.5 41.6457 1.5 40.5C1.5 39.3543 2.54839 37.8555 5.32294 36.5549C7.97793 35.3104 11.7512 34.5 16 34.5C20.2488 34.5 24.0221 35.3104 26.6771 36.5549C29.4516 37.8555 30.5 39.3543 30.5 40.5Z" stroke="#152C5B" stroke-width="3"/>
<path d="M30.5 40.5C30.5 41.6457 29.4516 43.1445 26.6771 44.4451C24.0221 45.6896 20.2488 46.5 16 46.5C11.7512 46.5 7.97793 45.6896 5.32294 44.4451C2.54839 43.1445 1.5 41.6457 1.5 40.5C1.5 39.3543 2.54839 37.8555 5.32294 36.5549C7.97793 35.3104 11.7512 34.5 16 34.5C20.2488 34.5 24.0221 35.3104 26.6771 36.5549C29.4516 37.8555 30.5 39.3543 30.5 40.5Z" stroke="#152C5B" stroke-width="3"/>
<path d="M27.5 13.9919C27.5 17.5653 26.1283 22.8312 23.8608 27.2032C22.7326 29.3786 21.4252 31.2483 20.0337 32.5541C18.6369 33.8649 17.2763 34.5 16 34.5C14.7237 34.5 13.3631 33.8649 11.9663 32.5541C10.5748 31.2483 9.2674 29.3786 8.13918 27.2032C5.87175 22.8312 4.5 17.5653 4.5 13.9919C4.5 6.98704 9.75069 1.5 16 1.5C22.2493 1.5 27.5 6.98704 27.5 13.9919Z" fill="white"/>
<path d="M27.5 13.9919C27.5 17.5653 26.1283 22.8312 23.8608 27.2032C22.7326 29.3786 21.4252 31.2483 20.0337 32.5541C18.6369 33.8649 17.2763 34.5 16 34.5C14.7237 34.5 13.3631 33.8649 11.9663 32.5541C10.5748 31.2483 9.2674 29.3786 8.13918 27.2032C5.87175 22.8312 4.5 17.5653 4.5 13.9919C4.5 6.98704 9.75069 1.5 16 1.5C22.2493 1.5 27.5 6.98704 27.5 13.9919Z" stroke="#152C5B" stroke-width="3"/>
<path d="M27.5 13.9919C27.5 17.5653 26.1283 22.8312 23.8608 27.2032C22.7326 29.3786 21.4252 31.2483 20.0337 32.5541C18.6369 33.8649 17.2763 34.5 16 34.5C14.7237 34.5 13.3631 33.8649 11.9663 32.5541C10.5748 31.2483 9.2674 29.3786 8.13918 27.2032C5.87175 22.8312 4.5 17.5653 4.5 13.9919C4.5 6.98704 9.75069 1.5 16 1.5C22.2493 1.5 27.5 6.98704 27.5 13.9919Z" stroke="#152C5B" stroke-width="3"/>
<circle cx="16" cy="15" r="4.5" stroke="#152C5B" stroke-width="3"/>
<circle cx="16" cy="15" r="4.5" stroke="#FF498B" stroke-width="3"/>
</g>
<defs>
<clipPath id="clip0_37_61">
<rect width="48" height="48" fill="white"/>
</clipPath>
</defs>
</svg>
