<svg width="48" height="48" viewBox="0 0 48 48" fill="none" xmlns="http://www.w3.org/2000/svg">
<g clip-path="url(#clip0_37_84)">
<rect width="48" height="48" fill="white"/>
<mask id="path-1-inside-1_37_84" fill="white">
<path fill-rule="evenodd" clip-rule="evenodd" d="M18.2361 6C17.4785 6 16.786 6.42801 16.4472 7.10557L14 12H8C3.58172 12 0 15.5817 0 20V34C0 38.4183 3.58172 42 8 42H40C44.4183 42 48 38.4183 48 34V20C48 15.5817 44.4183 12 40 12H32.2L30.0307 7.17927C29.7077 6.46157 28.9939 6 28.2068 6H18.2361Z"/>
</mask>
<path d="M16.4472 7.10557L13.7639 5.76393L13.7639 5.76393L16.4472 7.10557ZM14 12V15H15.8541L16.6833 13.3416L14 12ZM32.2 12L29.4642 13.2311L30.2602 15H32.2V12ZM30.0307 7.17927L27.2949 8.41036L27.2949 8.41036L30.0307 7.17927ZM19.1305 8.44722C18.9611 8.786 18.6148 9 18.2361 9V3C16.3422 3 14.6109 4.07001 13.7639 5.76393L19.1305 8.44722ZM16.6833 13.3416L19.1305 8.44721L13.7639 5.76393L11.3167 10.6584L16.6833 13.3416ZM8 15H14V9H8V15ZM3 20C3 17.2386 5.23858 15 8 15V9C1.92487 9 -3 13.9249 -3 20H3ZM3 34V20H-3V34H3ZM8 39C5.23858 39 3 36.7614 3 34H-3C-3 40.0751 1.92487 45 8 45V39ZM40 39H8V45H40V39ZM45 34C45 36.7614 42.7614 39 40 39V45C46.0751 45 51 40.0751 51 34H45ZM45 20V34H51V20H45ZM40 15C42.7614 15 45 17.2386 45 20H51C51 13.9249 46.0751 9 40 9V15ZM32.2 15H40V9H32.2V15ZM27.2949 8.41036L29.4642 13.2311L34.9358 10.7689L32.7664 5.94818L27.2949 8.41036ZM28.2068 9C27.8133 9 27.4564 8.76921 27.2949 8.41036L32.7664 5.94818C31.959 4.15392 30.1744 3 28.2068 3V9ZM18.2361 9H28.2068V3H18.2361V9Z" fill="#152C5B" mask="url(#path-1-inside-1_37_84)"/>
<circle cx="24" cy="26" r="6.5" stroke="#152C5B" stroke-width="3"/>
<circle cx="24" cy="26" r="6.5" stroke="#FF498B" stroke-width="3"/>
<path d="M41.9869 20.3226H35.9869" stroke="#3252DF" stroke-width="3" stroke-linecap="round" stroke-linejoin="round"/>
<path d="M41.9869 20.3226H35.9869" stroke="#152C5B" stroke-width="3" stroke-linecap="round" stroke-linejoin="round"/>
</g>
<defs>
<clipPath id="clip0_37_84">
<rect width="48" height="48" fill="white"/>
</clipPath>
</defs>
</svg>
